<?xml version="1.0" encoding="utf-8"?>
<!-- Generator: Adobe Illustrator 22.0.1, SVG Export Plug-In . SVG Version: 6.00 Build 0)  -->
<svg version="1.1" id="Capa_1" xmlns="http://www.w3.org/2000/svg" xmlns:xlink="http://www.w3.org/1999/xlink" x="0px" y="0px"
	 viewBox="0 0 512 512" style="enable-background:new 0 0 512 512;" xml:space="preserve">
<style type="text/css">
	.st0{fill:#F8B64C;}
	.st1{fill:#020100;}
	.st2{fill:#FFFFFF;stroke:#0A0100;stroke-width:9;stroke-miterlimit:10;}
</style>
<path d="M510,437.3V516H2v-78.7c0-40.3,25.4-76.4,63.3-89.9l14.1-5.1l87.3-31.5l20-7.1v-40.3c5.2,7.7,11,15,17.3,22l9.8,10.8
	c9,9.8,21.7,15.5,35,15.5h14.9c13.3,0,26-5.6,35-15.5l9.8-10.8c6.3-6.8,12-14.3,17.3-22v40.3l19.9,7.1l0.2,0.1l87.3,31.5l13.9,5
	C484.6,360.9,510,397,510,437.3"/>
<g>
	<path class="st0" d="M186.6,303.6c0.9,1.2,0.7,1.2-0.1,0H186.6z"/>
	<path class="st0" d="M325.6,303.6c-0.9,1.2-1,1.2-0.1,0H325.6z"/>
	<path d="M186.5,169.5c1.6,17.9-7.1,33.2-19.4,34.3s-23.5-12.5-25-30.4c-1.6-17.9,7.1-33.2,19.3-34.3
		C173.7,138,184.9,151.6,186.5,169.5"/>
	<path class="st1" d="M370,173.3c-1.6,17.9-12.8,31.5-25,30.4c-12.3-1.1-20.9-16.4-19.4-34.3c1.6-17.9,12.8-31.5,25-30.4
		C362.9,140.1,371.6,155.5,370,173.3"/>
</g>
<path d="M256.1,20.3C199.1,20.3,153,66.4,153,123.4v30.9c0,7.9,0.5,15.8,1.5,23.6v0c4.9,40,22.1,77.6,49.4,107.3l9.8,10.7
	c9,9.9,21.7,15.5,35,15.5h14.9c13.3,0,26-5.6,35-15.4l9.8-10.7c27.2-29.8,44.5-67.3,49.4-107.4c1-7.9,1.4-15.7,1.4-23.6v-30.9
	C359.2,66.4,313,20.3,256.1,20.3z"/>
<path d="M359.2,155c0,0,9.2-71.7-103.1-71.7c-108.4,0-103.6,65.3-103.2,71.4c-5-36.8-5-75.1-5-75.1C160.5-2.6,256.1,4.1,256.1,4.1
	s95.5-6.7,108.1,75.5C364.2,79.6,364.2,118.1,359.2,155"/>
<path class="st2" d="M432.9,346.4c-5.6,17.8-23.8,84.3-27.4,172.6H106.7c-3.5-88.4-21.7-155.1-27.4-172.7l87.3-31.5
	c7.8,29.7,15.3,53.9,22.9,73.9c22.8,58.5,105.7,59.7,130.9,2.1c8.9-20.2,17.2-45.1,25.3-75.9L432.9,346.4z"/>
</svg>
