<?xml version="1.0" encoding="iso-8859-1"?>
<!-- Generator: Adobe Illustrator 19.0.0, SVG Export Plug-In . SVG Version: 6.00 Build 0)  -->
<svg version="1.1" id="Capa_1" xmlns="http://www.w3.org/2000/svg" xmlns:xlink="http://www.w3.org/1999/xlink" x="0px" y="0px"
	 viewBox="0 0 384 384" style="enable-background:new 0 0 384 384;" xml:space="preserve">
<g>
	<g>
		<path d="M327.76,56.24C291.504,19.976,243.288,0,192,0C140.712,0,92.496,19.976,56.24,56.24C19.976,92.504,0,140.712,0,192
			c0,51.288,19.976,99.504,56.24,135.76C92.504,364.024,140.712,384,192,384c51.288,0,99.504-19.976,135.76-56.24
			C364.024,291.504,384,243.288,384,192C384,140.712,364.024,92.496,327.76,56.24z M349.376,163.592
			c-32.896,8.56-68.008,0.8-94.232-21c25.408-23.288,47.2-42.136,59.832-52.888C332.816,111.08,344.528,136.416,349.376,163.592z
			 M220.416,34.624c26.232,4.68,50.736,15.768,71.632,32.584c-13.04,11.128-33.896,29.232-58.152,51.456
			C217.904,93.912,212.92,63.416,220.416,34.624z M188.096,32.192c-8.144,37.664-0.072,77.048,22.128,108.496
			c-7.848,7.416-15.856,15.112-23.904,23L90.736,68.112C118.24,45.552,152.184,33.056,188.096,32.192z M68.112,90.736l95.584,95.584
			c-7.888,8.048-15.584,16.056-23,23.904c-31.448-22.2-70.832-30.264-108.504-22.136C33.048,152.184,45.544,118.24,68.112,90.736z
			 M34.624,220.408c28.792-7.496,59.296-2.504,84.04,13.488c-22.232,24.264-40.336,45.12-51.456,58.152
			C50.392,271.152,39.304,246.64,34.624,220.408z M163.6,349.376c-27.184-4.848-52.52-16.56-73.896-34.4
			c10.744-12.632,29.584-34.416,52.888-59.832C164.392,281.376,172.16,316.488,163.6,349.376z M195.904,351.808
			c9.192-42.512-2.232-87.232-31.368-120.232c7.04-7.44,14.312-15.016,21.776-22.632l106.944,106.944
			C265.76,338.448,231.808,350.944,195.904,351.808z M315.888,293.264L208.944,186.32c7.648-7.496,15.248-14.8,22.72-21.856
			c25.536,22.528,58,34.608,91.12,34.608c9.688,0,19.408-1.144,29.032-3.224C350.968,231.776,338.472,265.744,315.888,293.264z"/>
	</g>
</g>
<g>
</g>
<g>
</g>
<g>
</g>
<g>
</g>
<g>
</g>
<g>
</g>
<g>
</g>
<g>
</g>
<g>
</g>
<g>
</g>
<g>
</g>
<g>
</g>
<g>
</g>
<g>
</g>
<g>
</g>
</svg>
