<?xml version="1.0" encoding="utf-8"?>
<!-- Generator: Adobe Illustrator 22.0.1, SVG Export Plug-In . SVG Version: 6.00 Build 0)  -->
<svg version="1.1" id="Capa_1" xmlns="http://www.w3.org/2000/svg" xmlns:xlink="http://www.w3.org/1999/xlink" x="0px" y="0px"
	 viewBox="0 0 512 512" style="enable-background:new 0 0 512 512;" xml:space="preserve">
<style type="text/css">
	.st0{fill:#1D428A;}
	.st1{fill:#0E2240;}
	.st2{fill:#8B2131;}
	.st3{fill:#FEC524;}
	.st4{fill:none;}
	.st5{fill:#FFFFFF;}
	.st6{font-family:'NBAClevelandCavaliers';}
	.st7{font-size:233px;}
</style>
<path class="st0" d="M441.4,485.9C389,509.2,256,512,256,512s-133-2.8-185.4-26.1c-6-2.7-8.8-9.7-6.2-15.7
	c7.3-17.1,18.8-66.6,18.8-208.3c0-48.1-9.3-83.6-15.9-102.7c-1.2-3.5-0.7-7.3,1.3-10.4c15.2-23.7,24.3-54,24.3-87.1
	c0-14.2-1.7-27.9-4.8-40.8C85.5,10.2,93.6,0,104.5,0h44.7c10.4,0,19.9,6.3,23.7,16c11.9,30.1,53.4,54.6,72.9,64.7
	c6.4,3.3,14,3.3,20.4,0c19.5-10.1,61-34.6,72.9-64.7c3.8-9.7,13.3-16,23.7-16h44.7c10.9,0,19,10.2,16.5,20.8
	c-3.1,12.9-4.8,26.6-4.8,40.8c0,33.1,9.1,63.5,24.3,87.1c2,3.1,2.5,6.9,1.3,10.4c-6.6,19.1-15.9,54.6-15.9,102.7
	c0,141.7,11.5,191.2,18.8,208.3C450.2,476.2,447.4,483.2,441.4,485.9z"/>
<path class="st1" d="M-47.6,477.1C-100,500.4-233,503.2-233,503.2s-133-2.8-185.4-26.1c-6-2.7-8.8-9.7-6.2-15.7
	c7.3-17.1,18.8-66.6,18.8-208.3c0-48.1-9.3-83.6-15.9-102.7c-1.2-3.5-0.7-7.3,1.3-10.4c15.2-23.7,24.3-54,24.3-87.1
	c0-14.2-1.7-27.9-4.8-40.8c-2.6-10.6,5.5-20.8,16.5-20.8h44.7c10.4,0,19.9,6.3,23.7,16c11.9,30.1,53.4,54.6,72.9,64.7
	c6.4,3.3,14,3.3,20.4,0c19.5-10.1,61-34.6,72.9-64.7c3.8-9.7,13.3-16,23.7-16h44.7c10.9,0,19,10.2,16.5,20.8
	c-3.1,12.9-4.8,26.6-4.8,40.8c0,33.1,9.1,63.5,24.3,87.1c2,3.1,2.5,6.9,1.3,10.4C-50.9,169.4-60.2,205-60.2,253
	c0,141.7,11.5,191.2,18.8,208.3C-38.8,467.4-41.6,474.4-47.6,477.1z"/>
<path class="st2" d="M154,15c14.6,36.9,65.6,67,89.4,79.4c7.9,4.1,17.2,4.1,25,0C292.4,82,343.3,51.9,358,15
	c2.5-6.4,7.1-11.5,12.7-15h-7.8c-10.4,0-19.9,6.3-23.7,16c-11.9,30.1-53.4,54.6-72.9,64.7c-6.4,3.3-14,3.3-20.4,0
	c-19.4-10.1-61-34.6-72.9-64.7c-3.8-9.7-13.3-16-23.7-16h-7.8C147,3.4,151.5,8.6,154,15z"/>
<path class="st3" d="M349.1,183.2H317c-7.7,0-13.9-6.2-13.9-13.9v-6.8c0-7.7,6.2-13.9,13.9-13.9h32.1c7.7,0,13.9,6.2,13.9,13.9v6.8
	C363.1,176.9,356.8,183.2,349.1,183.2z"/>
<rect x="136" y="224" class="st4" width="252" height="252"/>
<text transform="matrix(1 0 0 1 172.7641 410.3797)" class="st5 st6 st7">15</text>
</svg>
